<?xml version="1.0" encoding="UTF-8" standalone="no" ?>
<!DOCTYPE svg PUBLIC "-//W3C//DTD SVG 1.1//EN" "http://www.w3.org/Graphics/SVG/1.1/DTD/svg11.dtd">
<svg xmlns="http://www.w3.org/2000/svg" xmlns:xlink="http://www.w3.org/1999/xlink" version="1.1" width="500" height="500" viewBox="0 0 500 500" xml:space="preserve">
<desc>Created with Fabric.js 4.6.0</desc>
<defs>
</defs>
<g transform="matrix(1 0 0 1 250 250)" id="9rte9SfOO80OLdGNxZqbM"  >
<path style="stroke: none; stroke-width: 1; stroke-dasharray: none; stroke-linecap: butt; stroke-dashoffset: 0; stroke-linejoin: miter; stroke-miterlimit: 4; fill: rgb(0,0,0); fill-rule: nonzero; opacity: 1;" vector-effect="non-scaling-stroke"  transform=" translate(-30, -40.91)" d="M 2.2475 53.41668 L 10.3352 1.5870099999999994 C 10.615 -0.18029000000000073 12.9861 -0.5983900000000006 13.8231 0.9815099999999993 L 22.5163 17.2512 z M 60.00001 65.45478 L 52.03341 18.274900000000002 C 51.91561 17.587600000000002 51.42631 17.0223 50.76281 16.807900000000004 C 50.09921 16.592700000000004 49.37111 16.764500000000005 48.87361 17.252200000000002 L 0 65.45477 L 27.1646 81.12146 C 28.8583 82.05006 30.9103 82.05006 32.6039 81.12146 z M 37.90161 24.363 L 31.67271 12.50911 C 31.35691 11.88811 30.71951 11.49701 30.022409999999997 11.49701 C 29.326109999999996 11.49701 28.68791 11.88811 28.372109999999996 12.50911 L 0.9915099999999946 61.31878 z" stroke-linecap="round" />
</g>
</svg>