<?xml version="1.0" encoding="UTF-8" standalone="no" ?>
<!DOCTYPE svg PUBLIC "-//W3C//DTD SVG 1.1//EN" "http://www.w3.org/Graphics/SVG/1.1/DTD/svg11.dtd">
<svg xmlns="http://www.w3.org/2000/svg" xmlns:xlink="http://www.w3.org/1999/xlink" version="1.1" width="500" height="500" viewBox="0 0 500 500" xml:space="preserve">
<desc>Created with Fabric.js 4.6.0</desc>
<defs>
</defs>
<g transform="matrix(1 0 0 1 250 250)" id="biMuAmoMyxXBC6Yg5HmgD"  >
<path style="stroke: none; stroke-width: 1; stroke-dasharray: none; stroke-linecap: butt; stroke-dashoffset: 0; stroke-linejoin: miter; stroke-miterlimit: 4; fill: rgb(255,255,255); fill-rule: nonzero; opacity: 1;" vector-effect="non-scaling-stroke"  transform=" translate(-50, -48.77)" d="M 50.001 0.0001 C 22.389449999999997 0.0001 0 22.38587 0 50.00061 C 0 72.09238 14.32729 90.83417 34.19368 97.44514000000001 C 36.69273 97.90814 37.60975 96.36015 37.60975 95.04015000000001 C 37.60975 93.84816000000001 37.56375 89.90918 37.54175 85.73120000000002 C 23.63147 88.75618000000001 20.69641 79.83223000000001 20.69641 79.83223000000001 C 18.42236 74.05326000000001 15.144300000000001 72.51627 15.144300000000001 72.51627 C 10.607210000000002 69.41329 15.486310000000001 69.47629 15.486310000000001 69.47629 C 20.50741 69.82929 23.15146 74.62926 23.15146 74.62926 C 27.61155 82.27322000000001 34.84869 80.06323 37.701750000000004 78.78624 C 38.150760000000005 75.55426 39.446780000000004 73.34927 40.87581 72.10028000000001 C 29.76959 70.83629 18.09535 66.54831000000001 18.09535 47.38952000000001 C 18.09535 41.93055000000001 20.04839 37.47058000000001 23.24745 33.96870000000001 C 22.72844 32.709710000000015 21.01641 27.623740000000012 23.731460000000002 20.736880000000014 C 23.731460000000002 20.736880000000014 27.93054 19.392890000000012 37.48574 25.861850000000015 C 41.47382 24.753860000000014 45.75191 24.198860000000014 50.00099 24.179860000000016 C 54.25007 24.198860000000014 58.53116 24.754860000000015 62.52724 25.861850000000015 C 72.07043 19.392890000000016 76.26351 20.736880000000014 76.26351 20.736880000000014 C 78.98555999999999 27.623840000000015 77.27253 32.70981000000001 76.75352 33.96870000000001 C 79.95957999999999 37.470680000000016 81.89962 41.930650000000014 81.89962 47.38952000000001 C 81.89962 66.59331000000002 70.20239 70.82228 59.06816 72.06028 C 60.8612 73.61227000000001 62.45923 76.65525000000001 62.45923 81.31923 C 62.45923 88.00919 62.40123 93.39416 62.40123 95.04005000000001 C 62.40123 96.37104000000001 63.301249999999996 97.93003 65.8353 97.43904 C 85.6917 90.82008 99.99998 72.08429000000001 99.99998 50.000510000000006 C 99.99998 22.385770000000004 77.61353 7.105427357601002e-15 49.998979999999996 7.105427357601002e-15 z M 18.72737 71.22639 C 18.61737 71.47439 18.22636 71.54938999999999 17.870350000000002 71.37839 C 17.507340000000003 71.21539 17.304340000000003 70.87639 17.42134 70.62738999999999 C 17.52934 70.37138999999999 17.92035 70.30039 18.28236 70.47138999999999 C 18.64537 70.63438999999998 18.85237 70.97638999999998 18.72737 71.22538999999999 z M 21.18642 73.42037 C 20.94842 73.64137000000001 20.481409999999997 73.53837 20.165399999999998 73.18937000000001 C 19.838389999999997 72.84037000000001 19.777389999999997 72.37437000000001 20.0184 72.15038000000001 C 20.2644 71.92938000000001 20.71641 72.03238000000002 21.04442 72.38138000000001 C 21.37143 72.73438 21.43543 73.19738000000001 21.18642 73.42037 z M 22.87446 76.22836 C 22.56845 76.44135999999999 22.067439999999998 76.24136 21.75744 75.79736 C 21.45143 75.35236 21.45143 74.81936999999999 21.76444 74.60637 C 22.07445 74.39237 22.56846 74.58436999999999 22.882460000000002 75.02637 C 23.188470000000002 75.47837 23.188470000000002 76.01136 22.87546 76.22936 z M 25.72751 79.48034 C 25.4535 79.78234 24.86949 79.70134 24.44248 79.28934 C 24.00547 78.88633999999999 23.88347 78.31434999999999 24.15847 78.01135 C 24.435480000000002 77.70835 25.02249 77.79334999999999 25.453500000000002 78.20235 C 25.887510000000002 78.60435 26.01951 79.18133999999999 25.727510000000002 79.48034 z M 29.41559 80.57833 C 29.294590000000003 80.97032999999999 28.732580000000002 81.14832999999999 28.16657 80.98133 C 27.60056 80.81033 27.23055 80.35133 27.34555 79.95534 C 27.463549999999998 79.56134 28.02756 79.37534000000001 28.59858 79.55334 C 29.16359 79.72434000000001 29.534599999999998 80.17934000000001 29.4166 80.57733 z M 33.61267 81.04433 C 33.626670000000004 81.45633000000001 33.146660000000004 81.79833 32.55165 81.80633 C 31.953640000000004 81.81933000000001 31.470630000000003 81.48633000000001 31.463630000000002 81.08033 C 31.463630000000002 80.66433 31.932640000000003 80.32533000000001 32.53065 80.31533 C 33.12466 80.30333 33.611670000000004 80.63533 33.611670000000004 81.04433 z M 37.73575 80.88633 C 37.80675 81.28833 37.39374 81.70233 36.80373 81.81232 C 36.22372 81.91832 35.68571 81.67032 35.61271 81.27032 C 35.54071 80.85831999999999 35.96172 80.44432 36.540729999999996 80.33833 C 37.13173999999999 80.23533 37.66074999999999 80.47733 37.736749999999994 80.88633 z" stroke-linecap="round" />
</g>
</svg>