<?xml version="1.0" encoding="UTF-8" standalone="no" ?>
<!DOCTYPE svg PUBLIC "-//W3C//DTD SVG 1.1//EN" "http://www.w3.org/Graphics/SVG/1.1/DTD/svg11.dtd">
<svg xmlns="http://www.w3.org/2000/svg" xmlns:xlink="http://www.w3.org/1999/xlink" version="1.1" width="500" height="500" viewBox="0 0 500 500" xml:space="preserve">
<desc>Created with Fabric.js 4.6.0</desc>
<defs>
</defs>
<g transform="matrix(4.25 0 0 4.25 239.7 233.59)" id="zkinJBXwUH6px5J6cisrF"  >
<path style="stroke: none; stroke-width: 1; stroke-dasharray: none; stroke-linecap: butt; stroke-dashoffset: 0; stroke-linejoin: miter; stroke-miterlimit: 4; fill: rgb(255,255,255); fill-rule: nonzero; opacity: 1;" vector-effect="non-scaling-stroke"  transform=" translate(-6.33, -6.47)" d="M 5.925 4.982 C 5.483 4.982 5.183 5.025 5.027 5.069 L 5.027 7.91 C 5.213 7.952 5.44 7.966 5.754 7.966 C 6.911 7.966 7.625 7.381 7.625 6.3950000000000005 C 7.624 5.511 7.01 4.982 5.925 4.982 z" stroke-linecap="round" />
</g>
<g transform="matrix(4.25 0 0 4.25 250.02 243.21)" id="kGv4m4e7h2GhZ0HidRRyr"  >
<path style="stroke: none; stroke-width: 1; stroke-dasharray: none; stroke-linecap: butt; stroke-dashoffset: 0; stroke-linejoin: miter; stroke-miterlimit: 4; fill: rgb(255,255,255); fill-rule: nonzero; opacity: 1;" vector-effect="non-scaling-stroke"  transform=" translate(-8.73, -8.73)" d="M 16.4 0.002 L 1.07 0.002 C 0.479 0.002 0 0.48 0 1.069 L 0 16.398 C 0 16.988 0.479 17.467 1.07 17.467 L 16.4 17.467 C 16.99 17.467 17.468999999999998 16.988 17.468999999999998 16.398 L 17.468999999999998 1.07 C 17.469 0.48 16.99 0.002 16.4 0.002 z M 8.894 8.624 C 8.153 9.324 7.052 9.638 5.769 9.638 C 5.482 9.638 5.226 9.624 5.026 9.595 L 5.026 13.037 L 2.869 13.037 L 2.869 3.541 C 3.54 3.428 4.482 3.342 5.811 3.342 C 7.152 3.342 8.11 3.598 8.751 4.113 C 9.367999999999999 4.599 9.780999999999999 5.399000000000001 9.780999999999999 6.341000000000001 C 9.780999999999999 7.283000000000001 9.466 8.08 8.894 8.624 z M 12.145 13.179 C 11.229 13.179 10.416 12.981 9.887 12.694 L 10.272 11.138000000000002 C 10.672 11.379000000000001 11.501000000000001 11.665000000000001 12.145 11.665000000000001 C 12.799999999999999 11.665000000000001 13.072 11.437000000000001 13.072 11.079 C 13.072 10.723 12.857999999999999 10.552000000000001 12.045 10.280000000000001 C 10.603 9.795000000000002 10.045 9.009 10.059 8.181000000000001 C 10.059 6.883000000000001 11.173 5.895000000000001 12.901 5.895000000000001 C 13.715 5.895000000000001 14.443 6.082000000000002 14.871 6.295000000000002 L 14.486 7.795000000000002 C 14.172 7.623000000000002 13.573 7.396000000000002 12.972000000000001 7.396000000000002 C 12.445000000000002 7.396000000000002 12.146 7.610000000000002 12.146 7.967000000000001 C 12.146 8.295000000000002 12.415000000000001 8.466000000000001 13.272 8.767000000000001 C 14.6 9.223 15.158 9.895000000000001 15.171 10.921000000000001 C 15.171 12.222 14.141 13.179 12.145 13.179 z" stroke-linecap="round" />
</g>
</svg>