<?xml version="1.0" encoding="UTF-8" standalone="no" ?>
<!DOCTYPE svg PUBLIC "-//W3C//DTD SVG 1.1//EN" "http://www.w3.org/Graphics/SVG/1.1/DTD/svg11.dtd">
<svg xmlns="http://www.w3.org/2000/svg" xmlns:xlink="http://www.w3.org/1999/xlink" version="1.1" width="500" height="500" viewBox="0 0 500 500" xml:space="preserve">
<desc>Created with Fabric.js 4.6.0</desc>
<defs>
</defs>
<g transform="matrix(1 0 0 1 250 250)" id="6MjK8qijiVOdanubDfpd1"  >
<path style="stroke: none; stroke-width: 1; stroke-dasharray: none; stroke-linecap: butt; stroke-dashoffset: 0; stroke-linejoin: miter; stroke-miterlimit: 4; fill: rgb(0,0,0); fill-rule: nonzero; opacity: 1;" vector-effect="non-scaling-stroke"  transform=" translate(-70, -36.75)" d="M 40.6882 26.25 L 35.4382 26.25 L 32.375 41.5632 L 37.1882 41.5632 C 40.25 41.5632 42.876400000000004 41.125 44.625 39.8132 C 46.375 38.5 47.25 36.751400000000004 47.6868 33.6882 C 48.123599999999996 31.063200000000002 48.123599999999996 28.876400000000004 46.8118 28 C 45.9368 26.6868 43.75 26.25 40.6868 26.25 z M 70 0 C 31.5 0 0 16.625 0 36.75 C 0 56.875 31.5 73.5 70 73.5 C 108.5 73.5 140 56.875 140 36.75 C 140 16.625 108.5 0 70 0 z M 51.1882 43.3132 C 49.875 44.626400000000004 47.6882 45.9382 45.9382 46.375 C 44.1882 46.8132 41.5632 47.25 38.501400000000004 47.25 L 31.063200000000002 47.25 L 29.313200000000002 56.875 L 21.438200000000002 56.875 L 28.438200000000002 20.125 L 43.751400000000004 20.125 C 48.5632 20.125 51.626400000000004 21.4382 53.814600000000006 23.625 C 56.00280000000001 26.25 56.439600000000006 29.313200000000002 55.564600000000006 33.6868 C 55.12780000000001 35.4368 54.689600000000006 37.1868 53.814600000000006 38.5 C 53.376400000000004 40.6882 52.501400000000004 42 51.189600000000006 43.3132 z M 74.375 47.6882 L 77.4368 31.5014 C 77.875 29.7514 77.875 28.4396 76.99860000000001 27.563200000000002 C 76.56040000000002 26.688200000000002 75.24860000000001 26.688200000000002 73.0618 26.688200000000002 L 66.5 26.688200000000002 L 62.5618 47.6882 L 54.6868 47.6882 L 61.6868 10.938200000000002 L 70 10.938200000000002 L 68.25 20.563200000000002 L 75.25 20.563200000000002 C 79.625 20.563200000000002 82.6868 21.438200000000002 84.4382 22.751400000000004 C 86.1882 24.501400000000004 86.62639999999999 26.689600000000006 86.1882 30.189600000000006 L 82.6882 47.251400000000004 z M 118.5632 34.5632 C 118.125 36.3132 117.6882 38.0632 116.8132 39.376400000000004 C 115.9382 40.689600000000006 115.0632 42.4382 113.75139999999999 43.3132 C 112.4382 44.626400000000004 110.25139999999999 45.9382 108.50139999999999 46.375 C 106.75139999999999 46.8132 104.12639999999999 47.25 101.06459999999998 47.25 L 94.06459999999998 47.25 L 91.87639999999999 57.3132 L 84.00139999999999 57.3132 L 91.00139999999999 20.563200000000002 L 106.31459999999998 20.563200000000002 C 111.12779999999998 20.563200000000002 114.18959999999998 21.8764 116.37779999999998 24.063200000000002 C 119.00279999999998 26.688200000000002 119.43959999999998 30.188200000000002 118.56599999999997 34.5632 z M 103.6882 26.25 L 98 26.25 L 94.9382 41.5632 L 99.75139999999999 41.5632 C 102.8132 41.5632 105.43959999999998 41.125 107.1882 39.8132 C 108.9382 38.5 109.8132 36.751400000000004 110.25 33.6882 C 110.6882 31.063200000000002 110.6882 28.876400000000004 109.375 28 C 108.9368 26.6868 106.75 26.25 103.6868 26.25 z" stroke-linecap="round" />
</g>
</svg>