<?xml version="1.0" encoding="UTF-8" standalone="no" ?>
<!DOCTYPE svg PUBLIC "-//W3C//DTD SVG 1.1//EN" "http://www.w3.org/Graphics/SVG/1.1/DTD/svg11.dtd">
<svg xmlns="http://www.w3.org/2000/svg" xmlns:xlink="http://www.w3.org/1999/xlink" version="1.1" width="500" height="500" viewBox="0 0 500 500" xml:space="preserve">
<desc>Created with Fabric.js 4.6.0</desc>
<defs>
</defs>
<g transform="matrix(1.07 0 0 1.07 254.33 266.56)" id="aEj2UV1T6T7LeKrPrNbql"  >
<path style="stroke: none; stroke-width: 1; stroke-dasharray: none; stroke-linecap: butt; stroke-dashoffset: 0; stroke-linejoin: miter; stroke-miterlimit: 4; fill: rgb(0,0,0); fill-rule: nonzero; opacity: 1;" vector-effect="non-scaling-stroke"  transform=" translate(-44.06, -39.2)" d="M 72.45481 25.41235 C 81.97246999999999 28.6888 88.12302 33.82103 88.12302 39.128 C 88.12302 44.66226 81.55005 50.07338 71.44762 53.42057 C 70.91383 53.5975 70.3664 53.767689999999995 69.80877 53.93255 C 70.00782 54.73253 70.18507 55.51854 70.33738 56.287929999999996 C 72.33167999999999 66.36197 70.79557 74.64202 66.06897 77.37825 C 61.49264999999999 80.02758 54.095699999999994 77.42514999999999 46.60637 70.98033 C 45.81549 70.29956999999999 45.020379999999996 69.57378999999999 44.22401 68.80690999999999 C 43.6096 69.40077 42.99629 69.96734 42.38517 70.50159999999998 C 34.653180000000006 77.26028999999998 26.712720000000004 80.06475999999998 21.981420000000004 77.33636999999999 C 17.40086 74.69440999999999 15.961530000000003 66.98657999999999 17.804610000000004 57.27942999999999 C 17.998960000000004 56.25529999999999 18.230480000000004 55.205299999999994 18.496670000000005 54.133799999999994 C 17.676620000000007 53.898509999999995 16.880880000000005 53.650679999999994 16.114000000000004 53.388569999999994 C 6.3963500000000035 50.06710999999999 3.552713678800501e-15 44.589319999999994 3.552713678800501e-15 39.12799999999999 C 3.552713678800501e-15 33.84016999999999 5.958400000000004 28.742289999999993 15.288150000000003 25.489529999999995 C 16.330940000000005 25.126089999999994 17.420780000000004 24.784449999999996 18.549690000000005 24.463989999999995 C 18.302950000000006 23.473279999999995 18.084760000000006 22.498879999999996 17.898100000000007 21.544709999999995 C 15.965140000000007 11.666119999999994 17.325250000000008 3.771779999999996 21.918050000000008 1.1130399999999945 C 26.70770000000001 -1.6597400000000055 34.68423000000001 1.3178899999999945 42.642100000000006 8.383709999999994 C 43.12773000000001 8.814919999999994 43.61462000000001 9.265719999999993 44.10229 9.732219999999995 C 44.83418 9.027139999999994 45.5664 8.354379999999995 46.29657 7.718949999999994 C 53.88974 1.1108399999999943 61.40809 -1.653300000000005 66.00528 0.9977499999999946 C 70.79964 3.7625199999999945 72.20367 12.159909999999995 70.05629 22.583579999999998 C 69.92547 23.218379999999996 69.77834 23.864169999999998 69.61803 24.51842 C 70.59337000000001 24.799979999999998 71.54063000000001 25.09769 72.4548 25.41235 z M 70.26376 49.84776 C 78.98646000000001 46.9575 84.35853 42.53521 84.35853 39.12857 C 84.35853 35.930400000000006 79.38425000000001 31.779780000000002 71.22953 28.972500000000004 C 70.38641 28.682150000000004 69.51146 28.407020000000003 68.61 28.146170000000005 C 67.52595 31.653980000000004 66.07894 35.36037 64.32119 39.14692000000001 C 66.16317000000001 43.02586000000001 67.66838 46.78025000000001 68.78364 50.31096000000001 C 69.28747 50.16148000000001 69.78188 50.00728000000001 70.26375 49.84776000000001 z M 66.64442 57.01962 C 66.50686 56.324270000000006 66.34718 55.61307 66.16741999999999 54.88792 C 62.51749999999999 55.73166 58.49267999999999 56.34968 54.23257999999999 56.72771 C 51.81053999999999 60.23395 49.328889999999994 63.39103 46.84582999999999 66.10671 C 47.58775999999999 66.82073000000001 48.327349999999996 67.49538000000001 49.06159999999999 68.1272 C 55.46656999999999 73.63887 61.405519999999996 75.72837 64.18269 74.12089 C 65.48774999999999 73.36546 66.54324 71.47925000000001 67.06809 68.65016 C 67.65223 65.50171 67.52627 61.47423 66.64442 57.01962 z M 30.04321 73.84309 C 33.06273 72.77662000000001 36.488969999999995 70.65621 39.908 67.66760000000001 C 40.46485 67.18072000000001 41.02483 66.66403000000001 41.58701 66.1213 C 39.01392 63.35998000000001 36.46058 60.20635000000001 34.02223 56.775400000000005 C 29.75193 56.429210000000005 25.756610000000002 55.854800000000004 22.14668 55.05655 C 21.899 56.054790000000004 21.6841 57.03138 21.50356 57.9821 C 19.92729 66.28364 21.08286 72.47231000000001 23.86254 74.07555 C 25.16885 74.82878000000001 27.32988 74.80133000000001 30.04321 73.84309 z M 17.33161 49.8269 C 18.03057 50.06564 18.756980000000002 50.292460000000005 19.50676 50.50798 C 20.62029 46.87892 22.08738 43.06884 23.85564 39.22018 C 22.10997 35.42783 20.66343 31.677509999999998 19.56072 28.09049 C 18.50898 28.3893 17.49553 28.70741 16.5274 29.04497 C 8.54852 31.82684 3.7645099999999996 35.91973 3.7645099999999996 39.128569999999996 C 3.7645099999999996 40.63643999999999 4.867999999999999 42.49473999999999 7.053659999999999 44.366519999999994 C 9.486049999999999 46.449439999999996 13.03465 48.358239999999995 17.331609999999998 49.826899999999995 z M 21.59266 20.82231 C 21.76598 21.7084 21.969109999999997 22.61473 22.198439999999998 23.53721 C 25.84601 22.710880000000003 29.81326 22.0938 33.95776 21.709660000000003 C 36.37447 18.298950000000005 38.90443 15.169010000000004 41.46482 12.419760000000004 C 41.02264 11.997500000000004 40.58171 11.589360000000003 40.14251 11.199410000000004 C 33.27151 5.0984200000000035 26.752340000000004 2.6649300000000036 23.8042 4.371700000000004 C 21.036440000000002 5.973850000000004 19.93656 12.358590000000003 21.592660000000002 20.822320000000005 z M 59.60495 30.20853 C 60.49528 31.74652 61.340740000000004 33.27667 62.14009 34.79427 C 63.25441 32.18526 64.20104 29.64024 64.96055 27.20612 C 62.43074 26.628729999999997 59.736869999999996 26.1569 56.92519 25.80146 C 57.83779 27.231849999999998 58.73298 28.702389999999998 59.60495 30.20854 z M 44.10363 15.11019 C 42.34008 17.01303 40.586090000000006 19.11054 38.873990000000006 21.36819 C 40.58688000000001 21.28819 42.318900000000006 21.246779999999998 44.06159000000001 21.246779999999998 C 45.82091000000001 21.246779999999998 47.56580000000001 21.289129999999997 49.28935000000001 21.37054 C 47.57897000000001 19.09171 45.84005000000001 16.99139 44.10363000000001 15.11019 z M 28.50302 30.23457 L 28.50302 30.234260000000003 C 29.37641 28.719800000000003 30.27897 27.23843 31.20443 25.794870000000003 C 28.410629999999998 26.143570000000004 25.72946 26.603630000000003 23.21519 27.166280000000004 C 23.98129 29.634910000000005 24.91914 32.19153 26.01542 34.791450000000005 C 26.80222 33.26679000000001 27.631999999999998 31.744950000000003 28.50303 30.234570000000005 z M 31.2849 52.73081 C 30.33559 51.25776 29.41076 49.74722 28.51808 48.205149999999996 L 28.51792 48.205149999999996 C 27.64156 46.691469999999995 26.80849 45.16900999999999 26.01965 43.64545 C 24.90016 46.301359999999995 23.941599999999998 48.912569999999995 23.163269999999997 51.425279999999994 C 25.676919999999996 51.97239999999999 28.398399999999995 52.40877999999999 31.284899999999997 52.73080999999999 z M 44.20779 63.41237 C 45.93244 61.513600000000004 47.6651 59.380810000000004 49.38112 57.04896 C 47.633410000000005 57.126760000000004 45.857780000000005 57.16723 44.061600000000006 57.16723 C 42.31326000000001 57.16723 40.593 57.133340000000004 38.905680000000004 57.067150000000005 C 40.643820000000005 59.35774000000001 42.42353000000001 61.48724000000001 44.20779 63.41236000000001 z M 62.17601 43.51008 C 61.37007 45.0636 60.51771 46.62261 59.62001 48.17927 C 58.73267 49.71788 57.82963 51.213680000000004 56.91484 52.663360000000004 C 59.82141 52.314510000000006 62.58007 51.84503 65.13513 51.262150000000005 C 64.34677 48.79227 63.353860000000005 46.194700000000005 62.176010000000005 43.51008 z M 56.35909 46.29855 C 57.73474 43.9129 59.00121 41.52442 60.14564 39.16544 C 58.99775 36.8463 57.72846 34.481669999999994 56.3467 32.094919999999995 C 54.98047 29.734679999999994 53.55793 27.466359999999995 52.100719999999995 25.315369999999994 C 49.48072 25.115529999999996 46.789829999999995 25.011379999999996 44.0616 25.011379999999996 L 44.06144 25.011379999999996 C 41.34545 25.011379999999996 38.658 25.114749999999997 36.03722 25.312859999999997 C 34.55743 27.479689999999998 33.12516 29.755379999999995 31.764259999999997 32.115309999999994 L 31.764569999999996 32.114839999999994 C 30.407279999999997 34.468489999999996 29.154139999999995 36.848969999999994 28.015979999999995 39.21892999999999 C 29.154459999999997 41.58340999999999 30.410889999999995 43.961209999999994 31.776019999999995 46.31909999999999 L 31.775709999999997 46.31909999999999 C 33.144459999999995 48.68341999999999 34.58942999999999 50.97024999999999 36.083029999999994 53.15072999999999 C 38.65172999999999 53.317469999999986 41.31925 53.40263999999999 44.06159999999999 53.40263999999999 C 46.815079999999995 53.40263999999999 49.516639999999995 53.30631999999999 52.13161999999999 53.11934999999999 C 53.56732999999999 50.96709999999999 54.98155999999999 48.68700999999999 56.359089999999995 46.29853999999999 z M 64.12496 4.25969 C 61.35454 2.6620999999999997 55.27394 4.89748 48.76811 10.55926 C 48.09472 11.14544 47.41851 11.7666 46.74135 12.41803 C 49.26002 15.13198 51.769279999999995 18.26678 54.19069 21.71499 C 58.347269999999995 22.10493 62.317339999999994 22.732680000000002 65.97337999999999 23.57626 C 66.11801 22.983500000000003 66.25117999999999 22.398580000000003 66.36944999999999 21.82432 C 68.22350999999999 12.82461 67.07593999999999 5.961450000000001 64.12496999999999 4.259699999999999 z M 44.06152 31.25315 C 48.40742 31.25315 51.93061 34.776180000000004 51.93061 39.122240000000005 C 51.93061 43.468140000000005 48.407430000000005 46.991330000000005 44.06152 46.991330000000005 C 39.71562 46.991330000000005 36.19243 43.46815000000001 36.19243 39.122240000000005 z" stroke-linecap="round" />
</g>
<g transform="matrix(1.07 0 0 1.07 254.33 266.56)" id="x6k2cQRdCvYuHm2b0Ybee"  >
<path style="stroke: rgb(216,46,133); stroke-opacity: 0; stroke-width: 1; stroke-dasharray: none; stroke-linecap: butt; stroke-dashoffset: 0; stroke-linejoin: miter; stroke-miterlimit: 4; fill: rgb(0,0,0); fill-rule: nonzero; opacity: 1;" vector-effect="non-scaling-stroke"  transform=" translate(-7.5, -7.5)" d="M 7.5 0 C 11.64 0 15 3.36 15 7.5 C 15 11.64 11.64 15 7.5 15 C 3.3600000000000003 15 0 11.64 0 7.5 C 0 3.3600000000000003 3.36 0 7.5 0 z" stroke-linecap="round" />
</g>
</svg>