<?xml version="1.0" encoding="UTF-8" standalone="no" ?>
<!DOCTYPE svg PUBLIC "-//W3C//DTD SVG 1.1//EN" "http://www.w3.org/Graphics/SVG/1.1/DTD/svg11.dtd">
<svg xmlns="http://www.w3.org/2000/svg" xmlns:xlink="http://www.w3.org/1999/xlink" version="1.1" width="500" height="500" viewBox="0 0 500 500" xml:space="preserve">
<desc>Created with Fabric.js 4.6.0</desc>
<defs>
</defs>
<g transform="matrix(0.39 0 0 0.39 244.27 242)" id="Ak6QzNDGf7Bp51JLLv_0-"  >
<path style="stroke: none; stroke-width: 1; stroke-dasharray: none; stroke-linecap: butt; stroke-dashoffset: 0; stroke-linejoin: miter; stroke-miterlimit: 4; fill: rgb(255,255,255); fill-rule: nonzero; opacity: 1;" vector-effect="non-scaling-stroke"  transform=" translate(-128.22, -114.84)" d="M 128.22121 94.6653008 C 139.36455 94.6653008 148.398353 103.698702 148.398353 114.842444 C 148.398353 125.985784 139.36455 135.019589 128.22121 135.019589 C 117.07787 135.019589 108.044066 125.985784 108.044066 114.842444 C 108.044066 103.698702 117.07787 94.6653008 128.22121 94.6653008" stroke-linecap="round" />
</g>
<g transform="matrix(1 0 0 1 242.92 243)" id="bOeQ6nhRWPyRxvyL_0_wp"  >
<path style="stroke: rgb(255,255,255); stroke-width: 2; stroke-dasharray: none; stroke-linecap: butt; stroke-dashoffset: 0; stroke-linejoin: miter; stroke-miterlimit: 4; fill: rgb(214,144,202); fill-opacity: 0; fill-rule: nonzero; opacity: 1;" vector-effect="non-scaling-stroke"  transform=" translate(-41.33, -17)" d="M 41.3283 0 C 64.14152 0 82.6566 7.616 82.6566 17 C 82.6566 26.384 64.14152 34 41.3283 34 C 18.515079999999998 34 0 26.384 0 17 C 0 7.616 18.51508 0 41.3283 0 z" stroke-linecap="round" />
</g>
<g transform="matrix(-0.5 -0.87 -0.87 0.5 245.31 241.97)" id="-GaWnVN_3MiHc_gO2IuhV"  >
<path style="stroke: rgb(255,255,255); stroke-width: 2; stroke-dasharray: none; stroke-linecap: butt; stroke-dashoffset: 0; stroke-linejoin: miter; stroke-miterlimit: 4; fill: rgb(214,144,202); fill-opacity: 0; fill-rule: nonzero; opacity: 1;" vector-effect="non-scaling-stroke"  transform=" translate(-41.33, -17)" d="M 41.3283 0 C 64.14152 0 82.6566 7.616 82.6566 17 C 82.6566 26.384 64.14152 34 41.3283 34 C 18.515079999999998 34 0 26.384 0 17 C 0 7.616 18.51508 0 41.3283 0 z" stroke-linecap="round" />
</g>
<g transform="matrix(-0.5 0.87 -0.87 -0.5 243.31 242.95)" id="c1Osx_6I93AT9Ju0EGSZI"  >
<path style="stroke: rgb(255,255,255); stroke-width: 2; stroke-dasharray: none; stroke-linecap: butt; stroke-dashoffset: 0; stroke-linejoin: miter; stroke-miterlimit: 4; fill: rgb(214,144,202); fill-opacity: 0; fill-rule: nonzero; opacity: 1;" vector-effect="non-scaling-stroke"  transform=" translate(0, 0)" d="M 0 -17 C 22.81322 -17 41.3283 -9.384 41.3283 0 C 41.3283 9.384 22.813219999999998 17 0 17 C -22.81322 17 -41.3283 9.384 -41.3283 0 C -41.3283 -9.384 -22.813219999999998 -17 0 -17 z" stroke-linecap="round" />
</g>
</svg>