<?xml version="1.0" encoding="UTF-8" standalone="no" ?>
<!DOCTYPE svg PUBLIC "-//W3C//DTD SVG 1.1//EN" "http://www.w3.org/Graphics/SVG/1.1/DTD/svg11.dtd">
<svg xmlns="http://www.w3.org/2000/svg" xmlns:xlink="http://www.w3.org/1999/xlink" version="1.1" width="500" height="500" viewBox="0 0 500 500" xml:space="preserve">
<desc>Created with Fabric.js 4.6.0</desc>
<defs>
</defs>
<g transform="matrix(1 0 0 1 250 250)" id="CRTycyV6aYSZDfzNXF_my"  >
<path style="stroke: none; stroke-width: 1; stroke-dasharray: none; stroke-linecap: butt; stroke-dashoffset: 0; stroke-linejoin: miter; stroke-miterlimit: 4; fill: rgb(0,0,0); fill-rule: nonzero; opacity: 1;" vector-effect="non-scaling-stroke"  transform=" translate(-40, -37.97)" d="M 55.4322 53.04139 C 58.38422 52.73579 60.62424 50.19096 60.521840000000005 47.13653 C 60.42024000000001 44.0821 57.87462000000001 41.63887 54.82099 41.63887 L 54.61779 41.63887 C 51.46177 41.740469999999995 49.01854 44.387699999999995 49.12014 47.54373 C 49.22174 49.070949999999996 49.83295 50.39416 50.74896 51.31097 C 47.28734 58.132639999999995 41.99369 63.1207 34.05282 67.29514999999999 C 28.656779999999998 70.14558 23.058329999999998 71.16399 17.459079999999997 70.45118 C 12.877439999999996 69.83997 9.315019999999997 67.80395 7.074999999999996 64.44391999999999 C 3.8173799999999956 59.45505999999999 3.511769999999996 54.05980999999999 6.260589999999996 48.66373999999999 C 8.195009999999996 44.79489999999999 11.248629999999995 41.94446999999999 13.183049999999996 40.518849999999986 C 12.775849999999997 39.19562999999999 12.164639999999997 36.955609999999986 11.859839999999997 35.32678999999999 C -2.901880000000004 46.01650999999999 -1.374660000000004 60.47346999999999 3.104569999999997 67.29433999999999 C 6.463789999999998 72.38479999999998 13.284649999999997 75.54082999999999 20.818309999999997 75.54082999999999 C 22.854329999999997 75.54082999999999 24.890339999999995 75.33682999999999 26.926359999999995 74.82801999999998 C 39.95766 72.28238999999998 49.832139999999995 64.54550999999998 55.43138999999999 53.04057999999998 z M 73.34994 40.41725 C 65.61308 31.356350000000003 54.21059 26.367500000000003 41.180080000000004 26.367500000000003 L 39.551260000000006 26.367500000000003 C 38.635250000000006 24.53468 36.70084000000001 23.313070000000003 34.56242 23.313070000000003 L 34.35842 23.313070000000003 C 31.202400000000004 23.414670000000005 28.759970000000003 26.0619 28.86157 29.217930000000003 C 28.96317 32.272360000000006 31.50879 34.715590000000006 34.56242 34.715590000000006 L 34.765620000000006 34.715590000000006 C 37.00564000000001 34.61399000000001 38.94005000000001 33.188370000000006 39.75446000000001 31.253950000000007 L 41.58728000000001 31.253950000000007 C 49.32414000000001 31.253950000000007 56.65460000000001 33.493970000000004 63.271460000000005 37.87162000000001 C 68.36110000000001 41.231660000000005 72.02673 45.60931000000001 74.06275000000001 50.90296000000001 C 75.79317 55.179010000000005 75.69157000000001 59.35266000000001 73.85875000000001 62.916700000000006 C 71.00833000000002 68.31276000000001 66.22349000000001 71.26480000000001 59.91144000000001 71.26480000000001 C 55.839410000000015 71.26480000000001 51.97058000000001 70.04318 49.93456000000001 69.12638000000001 C 48.81455000000001 70.14479000000001 46.778540000000014 71.77361 45.35292000000001 72.79202000000001 C 49.73055000000001 74.82804 54.20979000000001 75.94805000000001 58.48582000000001 75.94805000000001 C 68.2587 75.94805000000001 75.48756000000002 70.55199 78.23558000000001 65.15673000000001 C 81.18760000000002 59.25187000000001 80.98440000000001 49.07095000000001 73.34914 40.41726000000001 z M 21.63352 54.77181 C 21.735120000000002 57.82624 24.28074 60.26947 27.33437 60.26947 L 27.53837 60.26947 C 30.69439 60.16787 33.13762 57.52064 33.03522 54.36461 C 32.933620000000005 51.31018 30.388 48.86695 27.334370000000003 48.86695 L 27.131170000000004 48.86695 C 26.927170000000004 48.86695 26.621560000000006 48.86695 26.418360000000003 48.96855 C 22.243930000000002 42.04527 20.513510000000004 34.512389999999996 21.124720000000003 26.3675 C 21.531920000000003 20.25864 23.567940000000004 14.96497 27.131170000000004 10.58732 C 30.083190000000005 6.82008 35.784040000000005 4.98806 39.65287000000001 4.8864600000000005 C 50.44416000000001 4.682460000000001 55.025000000000006 18.121000000000002 55.330600000000004 23.51707 C 56.65381000000001 23.82267 58.89383 24.53548 60.421040000000005 25.04429 C 59.19943000000001 8.55131 49.01854 0.000009999999999621423 39.245670000000004 0.000009999999999621423 C 30.083200000000005 0.000009999999999621423 21.633530000000004 6.61768 18.273500000000006 16.39139 C 13.590260000000006 29.42273 16.644680000000005 41.94527 22.345530000000004 51.82058 C 21.836720000000003 52.53339 21.531120000000005 53.6534 21.632720000000003 54.77341 z" stroke-linecap="round" />
</g>
</svg>