<?xml version="1.0" encoding="UTF-8" standalone="no" ?>
<!DOCTYPE svg PUBLIC "-//W3C//DTD SVG 1.1//EN" "http://www.w3.org/Graphics/SVG/1.1/DTD/svg11.dtd">
<svg xmlns="http://www.w3.org/2000/svg" xmlns:xlink="http://www.w3.org/1999/xlink" version="1.1" width="500" height="500" viewBox="0 0 500 500" xml:space="preserve">
<desc>Created with Fabric.js 4.6.0</desc>
<defs>
</defs>
<g transform="matrix(1 0 0 1 250 250)" id="GPXF77apUxIXBESuh4sh5"  >
<path style="stroke: none; stroke-width: 1; stroke-dasharray: none; stroke-linecap: butt; stroke-dashoffset: 0; stroke-linejoin: miter; stroke-miterlimit: 4; fill: rgb(0,0,0); fill-rule: nonzero; opacity: 1;" vector-effect="non-scaling-stroke"  transform=" translate(-50, -37.48)" d="M 86.05699 43.07855 C 82.56203 43.09755 79.53507 43.93555 76.9971 45.18754 C 76.06911000000001 43.33555 75.13012 41.70556 74.97212 40.49456 C 74.78812 39.07957 74.57412000000001 38.23657 74.79712 36.55158 C 75.02012 34.86659 75.99511000000001 32.4806 75.98011000000001 32.3016 C 75.96611000000001 32.1226 75.76211 31.2646 73.74614000000001 31.2496 C 71.73016000000001 31.2356 70.00518000000001 31.637600000000003 69.80219000000001 32.1696 C 69.59919000000001 32.7016 69.2112 33.89959 68.9702 35.148590000000006 C 68.61720000000001 36.976580000000006 64.94525 43.49555000000001 62.86027000000001 46.90654000000001 C 62.17828000000001 45.57555000000001 61.59828000000001 44.40155000000001 61.47829000000001 43.473560000000006 C 61.29429000000001 42.05957000000001 61.080290000000005 41.21557000000001 61.30329000000001 39.53058000000001 C 61.52529000000001 37.84559000000001 62.50028000000001 35.45960000000001 62.48628000000001 35.28060000000001 C 62.472280000000005 35.101600000000005 62.26728000000001 34.24360000000001 60.25131000000001 34.22860000000001 C 58.23533000000001 34.214600000000004 56.51135000000001 34.616600000000005 56.30836000000001 35.14860000000001 C 56.105360000000005 35.68160000000001 55.888360000000006 36.92459000000001 55.475370000000005 38.12859000000001 C 55.06237000000001 39.33158000000001 50.181430000000006 50.20653000000001 48.90345000000001 53.02552000000001 C 48.252460000000006 54.461510000000004 47.685460000000006 55.61551000000001 47.285470000000004 56.40350000000001 C 47.284470000000006 56.401500000000006 47.28247 56.398500000000006 47.28247 56.398500000000006 C 47.28247 56.398500000000006 47.257470000000005 56.450500000000005 47.21547 56.539500000000004 C 46.873470000000005 57.2105 46.66948 57.581500000000005 46.66948 57.581500000000005 C 46.66948 57.581500000000005 46.67148 57.58650000000001 46.67548 57.59550000000001 C 46.40348 58.08850000000001 46.11249 58.54550000000001 45.96849 58.54550000000001 C 45.867490000000004 58.54550000000001 45.665490000000005 57.234510000000014 46.01249 55.43451000000001 C 46.73848 51.66153000000001 48.48346 45.77855000000001 48.46646 45.57656000000001 C 48.45746 45.47256000000001 48.790459999999996 44.447570000000006 47.32747 43.911570000000005 C 45.904489999999996 43.390570000000004 45.398489999999995 44.259570000000004 45.26849 44.262570000000004 C 45.14249 44.265570000000004 45.04949 44.569570000000006 45.04949 44.569570000000006 C 45.04949 44.569570000000006 46.63447 37.95360000000001 42.02653 37.95360000000001 C 39.14556 37.95360000000001 35.15361 41.10559000000001 33.18764 43.96157000000001 C 31.94665 44.63857000000001 29.291690000000003 46.08856000000001 26.47372 47.63655000000001 C 25.39173 48.231550000000006 24.28775 48.83854000000001 23.23976 49.41554000000001 C 23.16876 49.33654000000001 23.09776 49.257540000000006 23.02476 49.17954000000001 C 17.43683 43.218570000000014 7.107950000000001 39.00159000000001 7.54594 30.98762000000001 C 7.70494 28.07363000000001 8.717929999999999 20.40167000000001 27.393700000000003 11.095710000000011 C 42.691520000000004 3.472750000000011 54.938370000000006 5.570740000000011 57.055350000000004 10.219710000000012 C 60.07831 16.86168000000001 50.51043000000001 29.206620000000015 34.622620000000005 30.98761000000001 C 28.569690000000005 31.66561000000001 25.382730000000002 29.31962000000001 24.589740000000006 28.44662000000001 C 23.755750000000006 27.52662000000001 23.630750000000006 27.48562000000001 23.318760000000005 27.65762000000001 C 22.811770000000003 27.938620000000007 23.132760000000005 28.75161000000001 23.318760000000005 29.23561000000001 C 23.793750000000003 30.470600000000008 25.739730000000005 32.65959000000001 29.058690000000006 33.74859000000001 C 31.977660000000007 34.706590000000006 39.08457000000001 35.232580000000006 47.67947000000001 31.908600000000007 C 57.30536000000001 28.185620000000007 64.82227 17.826670000000007 62.61429000000001 9.169710000000006 C 60.36932000000001 0.3637500000000049 45.768490000000014 -2.530239999999994 31.95065000000001 2.378740000000006 C 23.72675000000001 5.300730000000006 14.82385000000001 9.885710000000007 8.422930000000012 15.873680000000006 C 0.812020000000012 22.992650000000005 -0.40196999999998795 29.188620000000007 0.09803000000001205 31.777610000000006 C 1.875010000000012 40.97657000000001 14.554860000000012 46.96754000000001 19.631800000000013 51.407520000000005 C 19.38080000000001 51.54552 19.14581000000001 51.675520000000006 18.932810000000014 51.79352000000001 C 16.386840000000014 53.052510000000005 6.7219600000000135 58.110490000000006 4.304980000000015 63.455470000000005 C 1.5630100000000149 69.51744000000001 4.740970000000015 73.86742000000001 6.845950000000014 74.45242 C 13.366870000000015 76.26641000000001 20.057790000000015 73.00343000000001 23.653750000000016 67.63945000000001 C 27.248710000000017 62.27647000000001 26.809710000000017 55.29451000000001 25.159730000000017 52.10752000000001 C 25.139730000000018 52.06852000000001 25.116730000000018 52.029520000000005 25.095730000000017 51.989520000000006 C 25.752720000000018 51.60052 26.423710000000018 51.20452000000001 27.08771000000002 50.814530000000005 C 28.38369000000002 50.05353 29.65468000000002 49.343540000000004 30.75867000000002 48.74354 C 30.14168000000002 50.43553 29.68868000000002 52.46352 29.45369000000002 55.39251 C 29.17769000000002 58.833490000000005 30.58768000000002 63.28147 32.43265000000002 65.03147 C 33.24464000000002 65.80147 34.22263000000002 65.81947 34.84262000000002 65.81947 C 36.99059000000002 65.81947 37.969580000000015 64.03247999999999 39.04857000000002 61.919489999999996 C 40.37155000000002 59.3285 41.54654000000002 56.311519999999994 41.54654000000002 56.311519999999994 C 41.54654000000002 56.311519999999994 40.072560000000024 64.46047999999999 44.08751000000002 64.46047999999999 C 45.550490000000025 64.46047999999999 47.02248000000002 62.56348999999999 47.67747000000002 61.59648999999999 C 47.67947000000002 61.60748999999999 47.68047000000002 61.61248999999999 47.68047000000002 61.61248999999999 C 47.68047000000002 61.61248999999999 47.71847000000002 61.549489999999984 47.79347000000002 61.42348999999999 C 47.94547000000002 61.19148999999999 48.03147000000002 61.043489999999984 48.03147000000002 61.043489999999984 C 48.03147000000002 61.043489999999984 48.03447000000002 61.028489999999984 48.03947000000002 61.00148999999998 C 48.62746000000002 59.98048999999998 49.93145000000002 57.652509999999985 51.88742000000002 53.81451999999998 C 54.41439000000002 48.855539999999976 56.83836000000002 42.64156999999998 56.83836000000002 42.64156999999998 C 56.83836000000002 42.64156999999998 57.06436000000002 44.16055999999998 57.802350000000025 46.67254999999998 C 58.23634000000003 48.15053999999998 59.159330000000026 49.78453999999998 59.888330000000025 51.35152999999998 C 59.30234000000002 52.164529999999985 58.94234000000002 52.63151999999998 58.94234000000002 52.63151999999998 C 58.94234000000002 52.63151999999998 58.94534000000002 52.63951999999998 58.95234000000002 52.65551999999998 C 58.48435000000002 53.27751999999998 57.958350000000024 53.948509999999985 57.40936000000002 54.60250999999998 C 55.41538000000002 56.97849999999998 53.03941000000002 59.69048999999998 52.72142000000002 60.47347999999998 C 52.34642000000002 61.39547999999998 52.43542000000002 62.074469999999984 53.15941000000002 62.62046999999998 C 53.68840000000002 63.019469999999984 54.63039000000002 63.08146999999998 55.61338000000002 63.01446999999998 C 57.40536000000002 62.894469999999984 58.66634000000002 62.449469999999984 59.28834000000002 62.17846999999998 C 60.25833000000002 61.83546999999998 61.38732000000002 61.296469999999985 62.44830000000002 60.517479999999985 C 64.40528000000002 59.079489999999986 65.58526000000002 57.02149999999998 65.47126000000002 54.296509999999984 C 65.40826000000001 52.794519999999984 64.92927000000002 51.30551999999999 64.32327000000001 49.90052999999998 C 64.50127 49.64552999999998 64.67927 49.387529999999984 64.85726000000001 49.12652999999998 C 67.94122000000002 44.61754999999998 70.33419 39.66256999999998 70.33419 39.66256999999998 C 70.33419 39.66256999999998 70.56019 41.18155999999998 71.29818 43.69354999999998 C 71.67218 44.96553999999998 72.40917 46.35253999999998 73.07216 47.71252999999998 C 70.17219 50.06951999999998 68.37322 52.80750999999998 67.74922 54.60349999999998 C 66.59523 57.92547999999998 67.49922 59.43047999999998 69.1952 59.773479999999985 C 69.96319 59.928479999999986 71.04818 59.57647999999998 71.86517 59.23147999999998 C 72.88116000000001 58.89447999999998 74.10114 58.33347999999998 75.24113000000001 57.49548999999998 C 77.19811000000001 56.05749999999998 79.07908000000002 54.04350999999998 78.96509000000002 51.31751999999998 C 78.91309000000001 50.07652999999998 78.57709000000001 48.84552999999998 78.12010000000002 47.66253999999998 C 80.57807000000003 46.63853999999998 83.76103000000002 46.06954999999998 87.81498000000002 46.54254999999998 C 96.51188000000002 47.558549999999975 98.21786000000002 52.98851999999998 97.89186000000002 55.26150999999997 C 97.56586000000003 57.53449999999997 95.74189000000003 58.78348999999997 95.13089000000002 59.16148999999997 C 94.52090000000003 59.538489999999975 94.33490000000002 59.669489999999975 94.38590000000002 59.950489999999974 C 94.45990000000002 60.358489999999975 94.74190000000002 60.34248999999998 95.26189000000002 60.254489999999976 C 95.97788000000003 60.13348999999997 99.82884000000003 58.405499999999975 99.99383000000002 54.210519999999974 C 100.20283000000002 48.88453999999997 95.09989000000002 43.033569999999976 86.06100000000002 43.08156999999997 M 19.02078 65.67845 C 16.139809999999997 68.82043999999999 12.115859999999998 70.00843 10.389879999999998 69.00843 C 8.525899999999998 67.92744 9.264889999999998 63.301460000000006 12.799849999999998 59.96647 C 14.954819999999998 57.93348 17.735789999999998 56.062490000000004 19.580769999999998 54.90849 C 20.00077 54.65549 20.617759999999997 54.28449 21.367749999999997 53.83549 C 21.491749999999996 53.76449 21.562749999999998 53.72549 21.562749999999998 53.72549 L 21.559749999999998 53.72049 C 21.704749999999997 53.633489999999995 21.852749999999997 53.54549 22.005739999999996 53.453489999999995 C 23.292719999999996 58.200469999999996 22.044739999999997 62.37944999999999 19.020779999999995 65.67842999999999 M 40.00754 51.41152 C 39.00455 53.857510000000005 36.904579999999996 60.115480000000005 35.62559 59.780480000000004 C 34.528600000000004 59.49248000000001 33.86061 54.7355 35.40659 50.05353 C 36.184580000000004 47.697540000000004 37.84756 44.88055 38.82455 43.788560000000004 C 40.39653 42.02957000000001 42.12751 41.454570000000004 42.54851 42.167570000000005 C 43.0845 43.075570000000006 40.63653 49.878530000000005 40.00754 51.412530000000004 M 57.34633 59.68448 C 56.92034 59.90648 56.53034 60.04648 56.349340000000005 59.93848 C 56.21634 59.85948 56.52434 59.56548 56.52434 59.56548 C 56.52434 59.56548 58.693310000000004 57.23249 59.5473 56.170500000000004 C 60.04429 55.5525 60.62029 54.81951 61.24828 53.99951 C 61.253280000000004 54.08151 61.256280000000004 54.16251 61.256280000000004 54.24351 C 61.250280000000004 57.0385 58.549310000000006 58.92549 57.34633 59.68448 M 70.70317 56.63949 C 70.38617 56.41349 70.43817 55.68349 71.48216 53.41051 C 71.89215999999999 52.51751 72.82614 51.01552 74.45111999999999 49.579530000000005 C 74.63911999999999 50.16953000000001 74.75411999999999 50.736520000000006 74.75111999999999 51.26352000000001 C 74.73011999999999 54.7805 72.22014999999999 56.09450000000001 70.70316999999999 56.639500000000005" stroke-linecap="round" />
</g>
</svg>