<?xml version="1.0" encoding="UTF-8" standalone="no" ?>
<!DOCTYPE svg PUBLIC "-//W3C//DTD SVG 1.1//EN" "http://www.w3.org/Graphics/SVG/1.1/DTD/svg11.dtd">
<svg xmlns="http://www.w3.org/2000/svg" xmlns:xlink="http://www.w3.org/1999/xlink" version="1.1" width="500" height="500" viewBox="0 0 500 500" xml:space="preserve">
<desc>Created with Fabric.js 4.6.0</desc>
<defs>
</defs>
<g transform="matrix(1 0 0 1 250 250)" id="_ONeht-3E0ZJlZeUYMTXW"  >
<path style="stroke: none; stroke-width: 1; stroke-dasharray: none; stroke-linecap: butt; stroke-dashoffset: 0; stroke-linejoin: miter; stroke-miterlimit: 4; fill: rgb(0,0,0); fill-rule: nonzero; opacity: 1;" vector-effect="non-scaling-stroke"  transform=" translate(-50, -50)" d="M 50 0 C 22.444 0 0 22.422 0 50 C 0 77.556 22.444 100 50 100 C 77.556 100 100 77.556 100 50 C 100 22.422 77.556 0 50 0 z M 5.044 50 C 5.044 43.489 6.443999999999999 37.289 8.933 31.711 L 30.377 90.467 C 15.376999999999999 83.156 5.0440000000000005 67.77799999999999 5.0440000000000005 50 z M 50 94.956 C 45.578 94.956 41.333 94.312 37.289 93.11200000000001 L 50.778000000000006 53.912000000000006 L 64.578 91.779 C 64.68900000000001 92.00099999999999 64.778 92.201 64.911 92.401 C 60.267 94.045 55.244 94.957 50 94.957 z M 56.2 28.933 C 58.911 28.8 61.333000000000006 28.511 61.333000000000006 28.511 C 63.755 28.221999999999998 63.46600000000001 24.666999999999998 61.044000000000004 24.8 C 61.044000000000004 24.8 53.755 25.356 49.066 25.356 C 44.644000000000005 25.356 37.222 24.8 37.222 24.8 C 34.800000000000004 24.667 34.511 28.378 36.933 28.511 C 36.933 28.511 39.222 28.8 41.644 28.933 L 48.644 48.132999999999996 L 38.8 77.622 L 22.421999999999997 28.933 C 25.132999999999996 28.8 27.554999999999996 28.511 27.554999999999996 28.511 C 29.976999999999997 28.221999999999998 29.687999999999995 24.666999999999998 27.265999999999995 24.8 C 27.265999999999995 24.8 19.976999999999997 25.356 15.287999999999995 25.356 C 14.443999999999996 25.356 13.443999999999996 25.334000000000003 12.376999999999995 25.289 C 20.420999999999996 13.089000000000002 34.221 5.022000000000002 49.93299999999999 5.022000000000002 C 61.62199999999999 5.022000000000002 72.28899999999999 9.489 80.28899999999999 16.822000000000003 C 80.08899999999998 16.800000000000004 79.91099999999999 16.778000000000002 79.71099999999998 16.778000000000002 C 75.28899999999999 16.778000000000002 72.17799999999998 20.622000000000003 72.17799999999998 24.756 C 72.17799999999998 28.467 74.31099999999998 31.6 76.59999999999998 35.289 C 78.31099999999998 38.267 80.31099999999998 42.133 80.31099999999998 47.689 C 80.31099999999998 51.533 78.84399999999998 56 76.88899999999998 62.222 L 72.42199999999998 77.2 z M 72.6 88.844 L 86.333 49.154999999999994 C 88.889 42.733 89.755 37.62199999999999 89.755 33.044 C 89.755 31.4 89.64399999999999 29.865999999999996 89.44399999999999 28.421999999999997 C 92.95499999999998 34.843999999999994 94.95499999999998 42.178 94.95499999999998 50 C 94.95499999999998 66.6 85.97699999999999 81.06700000000001 72.59899999999999 88.844 z" stroke-linecap="round" />
</g>
</svg>